<?xml version="1.0" encoding="utf-8"?>
<!-- Generator: Adobe Illustrator 16.0.0, SVG Export Plug-In . SVG Version: 6.00 Build 0)  -->
<!DOCTYPE svg PUBLIC "-//W3C//DTD SVG 1.1//EN" "http://www.w3.org/Graphics/SVG/1.1/DTD/svg11.dtd">
<svg version="1.1" id="Layer_1" xmlns="http://www.w3.org/2000/svg" xmlns:xlink="http://www.w3.org/1999/xlink" x="0px" y="0px"
	 width="595.28px" height="841.89px" viewBox="0 0 595.28 841.89" enable-background="new 0 0 595.28 841.89" xml:space="preserve">
<g>
	<path fill-rule="evenodd" clip-rule="evenodd" fill="#FFFFFF" fill-opacity="0" d="M72.673,438.561c0.02,0.102,0.132,1.689,0.635,3.142
		c6.254,18.075,12.521,36.146,18.882,54.184c2.586,7.332,3.529,15.806,12.431,19.071c0.315,0.115,0.533,0.676,0.669,1.072
		c4.135,12.021,8.413,23.998,12.315,36.096c2.264,7.018,7.083,9.685,13.679,6.544c9.063-4.315,17.992-8.909,27.004-13.331
		c12.688-6.226,25.339-12.527,38.119-18.559c9.324-4.4,13.718-9.748,7.872-20.555c-1.306-2.413-1.883-5.222-2.789-7.851
		c-6.176-17.94-12.364-35.876-18.5-53.83c-0.56-1.636-0.788-3.385-1.17-5.082c1.989,1.075,4.147,1.935,5.9,3.311
		c0.996,0.782,1.484,2.354,1.934,3.663c2.432,7.082,4.888,14.159,7.127,21.304c2.059,6.571,2.763,6.743,8.993,3.791
		c4.057-1.922,4.867-4.146,2.999-8.112c-1.325-2.812-2.163-5.898-2.845-8.946c-0.351-1.564,0.114-3.312,0.209-4.976
		c1.798,1.266,4.357,2.146,5.233,3.877c1.701,3.362,2.313,7.256,3.651,10.825c0.994,2.648,1.759,6.015,3.777,7.532
		c7.056,5.307,14.319,10.481,22.042,14.725c12.591,6.918,26.375,10.37,40.741,10.375c9.662,0.004,19.682,0.301,28.896-2.059
		c11.402-2.92,22.449-7.819,33.056-13.066c7.848-3.881,15.207-8.958,17.378-18.943c0.896-4.124,4.248-7.731,6.61-11.495
		c0.271-0.431,1.359-0.349,2.069-0.505c0.165,0.775,0.631,1.635,0.442,2.311c-0.821,2.938-1.821,5.826-2.777,8.725
		c-2.415,7.317-2.359,7.2,4.495,10.804c2.984,1.569,4.767,1.327,5.881-2.038c2.568-7.762,5.024-15.573,8.016-23.173
		c0.628-1.595,3.359-2.362,5.121-3.511c0.135,1.548,0.788,3.275,0.326,4.618c-7.236,21.036-14.634,42.018-21.951,63.026
		c-1.731,4.973,0.675,10.691,5.641,13.213c3.025,1.536,6.296,2.584,9.335,4.096c19.624,9.756,39.199,19.61,58.825,29.362
		c6.747,3.353,12.249,1.496,14.383-4.671c3.212-9.283,6.471-18.551,9.566-27.873c1.843-5.553,2.935-11.404,9.148-14.26
		c1.331-0.611,2.321-2.575,2.892-4.128c2.875-7.828,5.54-15.733,8.317-23.599c4.313-12.215,8.648-24.424,12.991-36.629
		c2.036-5.722,4.01-11.402,0.427-17.306c-0.388-0.639-0.032-1.896,0.272-2.762c4.19-11.888,8.924-23.613,12.469-35.688
		c1.974-6.72,1.071-12.533-5.115-15.339c-7.39-3.353-14.727-6.883-21.776-10.885c-1.928-1.094-3.76-4.105-3.863-6.319
		c-0.26-5.563,0.71-11.171,0.795-16.768c0.162-10.573,0.091-21.151,0.013-31.727c-0.013-1.875-0.768-3.747-0.757-5.618
		c0.023-3.977,0.708-7.978,0.442-11.923c-0.888-13.188-2.154-26.349-3.12-39.532c-0.778-10.613-1.252-21.249-2.008-31.863
		c-0.696-9.779-1.567-19.547-2.431-29.313c-0.077-0.88-0.619-1.734-1.016-2.567c-0.809-1.696-2.117-3.292-2.413-5.064
		c-0.786-4.699-1.006-9.489-1.698-14.206c-1.156-7.877-3.73-15.766-3.474-23.576c0.348-10.578,3.203-21.047,4.22-31.636
		c0.697-7.276,5.293-13.658,3.595-21.578c-1.15-5.368,0.506-10.976-1.214-16.802c-3.365-11.406-3.851-23.629-10.267-34.186
		c-2.832-4.659-3.648-10.152-8.529-14.053c-5.566-4.45-9.722-10.645-14.662-15.92c-0.779-0.832-2.462-0.818-3.727-1.195
		c-0.079,0.754-0.407,1.59-0.192,2.248c1.102,3.379,2.35,6.711,3.535,10.063c1.355,3.835,3.035,7.595,3.967,11.531
		c1.434,6.058,2.895,12.199,3.348,18.378c0.559,7.617,0.359,15.322-0.045,22.961c-0.178,3.352-1.181,6.883-2.689,9.89
		c-2.253,4.487-6.019,8.298-7.812,12.914c-2.564,6.604-8.442,8.897-13.624,11.847c-4.413,2.512-9.616,3.732-14.574,5.163
		c-4.662,1.346-9.414,2.561-14.211,3.21c-5.282,0.716-10.524,0.651-14.93-3.495c-3.336-3.14-7.023-5.954-10.782-8.589
		c-18.852-13.217-39.945-21.597-62.651-23.449c-20.094-1.638-40.464-1.771-60.259,5.096c-17.999,6.243-34.809,14.326-49.104,26.917
		c-4.701,4.141-8.671,4.303-14.141,2.281c-3.704-1.37-8.074-0.854-12.101-1.473c-2.027-0.312-3.994-1.177-5.911-1.978
		c-0.985-0.412-1.759-1.302-2.7-1.853c-5.182-3.031-11.062-5.268-15.442-9.186c-9.46-8.463-13.819-19.608-13.405-32.361
		c0.264-8.109,0.557-16.254,1.564-24.291c0.843-6.722,2.487-13.38,4.253-19.938c1.374-5.101,3.487-10,5.249-14.998
		c0.138-0.392,0.094-0.848,0.135-1.274c-0.298,0.084-0.687,0.075-0.88,0.265c-4.009,3.93-10.351,4.676-13.093,10.652
		c-1.624,3.538-5.533,5.953-7.827,9.278c-2.535,3.673-4.587,7.721-6.489,11.775c-1.294,2.757-1.873,5.841-2.943,8.714
		c-1.917,5.145-4.684,10.094-5.766,15.396c-1.22,5.976-1.255,12.251-1.28,18.397c-0.024,6.061,0.204,12.182,1.046,18.175
		c1.356,9.658,2.933,19.319,5.142,28.811c1.428,6.137,3.302,12.003,1.476,18.37c-0.996,3.473-1.624,7.06-2.275,10.621
		c-1.386,7.579-2.76,15.162-3.987,22.769c-1.06,6.571-1.964,13.17-2.83,19.771c-0.575,4.383-0.975,8.79-1.431,13.188
		c-0.806,7.759-1.756,15.508-2.343,23.285c-0.514,6.81-0.395,13.669-0.943,20.476c-0.893,11.076-2.244,22.115-3.113,33.192
		c-0.384,4.899-0.065,9.855-0.065,14.785c0,14.946-0.008,29.893,0.015,44.839c0.002,1.21,0.517,2.484,0.273,3.617
		c-0.365,1.706-0.717,4.191-1.893,4.823c-8.839,4.752-17.816,9.265-26.885,13.568c-4.321,2.051-7.177,5.191-6.151,9.781
		c1.94,8.678,5.033,17.096,7.04,25.763c1.837,7.929,8.76,15.085,4.028,24.136C72.455,435.754,72.673,436.48,72.673,438.561z"/>
	<path fill-rule="evenodd" clip-rule="evenodd" d="M407.203,711.086c-1.391,2.747-2.337,5.731-3.842,8.406
		c-2.688,4.774-5.661,9.387-8.497,14.078c-4.688,7.758-9.466,15.463-14.002,23.31c-2.641,4.568-4.854,9.383-7.318,14.056
		c-1.839,3.483-3.548,7.066-5.716,10.34c-3.707,5.6-7.664,11.039-11.666,16.435c-0.932,1.256-2.415,2.146-3.766,3.018
		c-0.313,0.202-1.585-0.287-1.63-0.581c-0.9-5.775-1.641-11.574-2.512-17.354c-0.44-2.918-1.244-5.787-1.58-8.713
		c-0.407-3.549-0.548-7.132-0.689-10.705c-0.051-1.287,0.393-2.596,0.331-3.881c-0.286-5.956-0.671-11.908-1.019-17.862
		c-0.03-0.523,0.1-1.114-0.103-1.559c-0.903-1.996-1.899-3.951-2.862-5.921c-0.644,1.389-1.2,2.824-1.944,4.157
		c-3.033,5.429-6.307,10.732-9.135,16.265c-2.158,4.226-3.653,8.786-5.669,13.093c-3.134,6.693-5.527,11.531-8.663,18.225
		c0.311-0.663-0.624,1.659-1.328,3c-0.328,0.625,0.047-0.281-0.927,1.834c-0.485,0.872-0.533,1.277-0.792,2.275
		c-2.5,6-2.75,10.5-9.5,16.534c-2.875-2.5-3.75-8.266-4.196-11.438c-1.405-9.982-2.851-19.961-4.366-29.928
		c-0.839-5.519-1.761-11.029-2.881-16.495c-0.154-0.754-1.617-1.353-2.586-1.735c-0.206-0.081-1.197,1.033-1.326,1.694
		c-0.417,2.133-0.369,4.375-0.938,6.455c-0.6,2.193-2.014,4.177-2.53,6.379c-1.845,7.876-3.374,15.825-5.191,23.709
		c-1.503,6.522-3.101,12.425-4.737,18.918c-1.317,1.419-1.122,4.781-4.863,0.567c-0.821-2.692-1.754-5.357-2.422-8.088
		c-0.422-1.727-0.542-2.654-1.087-4.323c-1.102-3.372-2.337-7.565-3.426-10.941c-1.939-6.012-3.421-12.178-5.52-18.129
		c-1.878-5.328-4.496-10.392-6.464-15.692c-1.139-3.067-1.502-6.415-2.487-9.552c-0.412-1.313-1.528-2.403-2.325-3.595
		c-1.038,1.295-2.838,2.507-2.991,3.899c-1.056,9.586-1.69,19.217-2.622,28.818c-0.51,5.25-1.431,10.461-1.983,15.708
		c-0.405,3.853-0.512,7.735-0.752,11.604c-1.181,1.392,1.319,1.379-5.008,3.696c-4.44-1.449-5.813-4.143-8.241-6.927
		c-3.818-4.379-8.774-7.861-12.124-12.529c-5.055-7.043-9.12-14.795-13.661-22.211c-0.833-1.359-2.114-2.457-2.869-3.849
		c-3.326-6.132-6.569-12.309-9.774-18.505c-1.87-3.615-3.6-7.303-5.414-10.946c-2.187-4.39-4.374-8.779-6.603-13.147
		c-2.027-3.974-4.441-7.786-6.084-11.909c-2.057-5.158-3.154-10.707-5.313-15.813c-1.875-4.436-4.852-8.395-6.96-12.748
		c-1.394-2.878-2.038-6.11-3.159-9.132c-0.974-2.625-2.312-5.122-3.192-7.773c-1.299-3.912-2.339-7.91-3.461-11.879
		c-0.04-0.142,0.222-0.367,0.343-0.554c0.225,0.247,0.498,0.465,0.668,0.745c2.244,3.685,4.419,7.412,6.751,11.04
		c0.5,0.776,1.19,2.408,1.919,3.07c1.152,1.048,2.091,2.176,2.75,3.5c1.563,3.141,2.776,6.185,5.188,8.031
		c6.221,10.35,5.139,8.486,7.342,12.947c2.451,4.965,5.77,9.532,8.981,14.082c4.2,5.949,8.924,11.542,12.921,17.618
		c2.476,3.764,3.826,8.249,6.055,12.2c1.501,2.661,3.844,4.836,5.47,7.441c2.098,3.361,3.814,6.959,5.771,10.412
		c2.701,4.768,5.333,9.584,8.299,14.183c0.837,1.299,2.661,2.389,4.185,2.636c0.739,0.119,2.395-1.807,2.661-3.021
		c1.135-5.159,1.628-10.467,2.874-15.594c1.919-7.896,4.354-15.664,6.382-23.535c0.754-2.924,1.025-5.979,1.425-8.985
		c0.148-1.117-0.262-2.374,0.097-3.384c0.867-2.436,0.348-3.407,2.668-6.205c4.43-0.327,4.968,3.249,6.312,5.823
		c2.064,3.958,2.933,8.536,4.98,12.506c3.124,6.058,7.015,11.716,10.219,17.736c3.211,6.033,5.853,12.371,9.127,18.366
		c0.338,0.618,4.458,0.361,4.837-0.436c1.924-4.045,3.084-8.444,4.729-12.635c1.213-3.088,1.986-5.859,3.225-8.938
		c0.714-1.775,1.625-3.979,2.4-5.716c1.755-3.935,3.771-7.752,5.71-11.604c0.298-0.593,0.644-1.357,1.163-1.571
		c0.329-0.135,1.28,0.485,1.499,0.971c1.04,2.309,2.087,4.635,2.825,7.049c1.373,4.492,2.337,9.113,3.826,13.563
		c2.074,6.202,4.396,12.325,6.799,18.41c0.483,1.225,1.682,2.775,2.765,2.967c0.886,0.157,2.318-1.313,3.116-2.36
		c4.256-5.591,8.4-11.267,12.558-16.933c1.315-1.792,2.578-3.626,3.814-5.474c2.583-3.865,5.1-7.775,7.704-11.625
		c4.551-6.727,9.14-13.428,13.764-20.104c0.126-0.183,1.178-0.059,1.217,0.082c0.823,3.001,1.797,5.989,2.276,9.053
		c1.433,9.156,2.842,18.324,3.904,27.527c0.579,5.014,0.188,10.136,0.715,15.158c0.308,2.928,1.554,5.759,2.456,8.608
		c0.024,0.076,1.272,0.034,1.419-0.237c2.055-3.816,3.928-7.732,6.025-11.524c2.713-4.906,5.432-9.822,8.441-14.546
		c2.196-3.446,5.125-6.432,7.258-9.91c2.44-3.981,4.323-8.301,6.522-12.435c1.584-2.979,3.186-5.957,4.963-8.821
		c2.5-4.03,5.452-7.801,7.696-11.961c2.884-5.346,5.011-11.102,7.933-16.424c2.077-3.783,5.087-7.043,7.354-10.737
		c0.86-1.4,1.47-6.784,1.188-5.063c-0.53,3.231,1.237-1.803,1.624-2.221c1.719-1.856,2.747-2.957,4.342-4.909
		c1.271-1.555,2.143-3.431,3.252-5.124c0.286-0.437,0.8-0.725,1.209-1.081c0.12,0.58,0.486,1.245,0.32,1.727
		c-1.178,3.431-2.571,6.789-3.692,10.236c-1.472,4.532-2.756,9.125-4.118,13.692c-0.173,0.579-0.258,1.196-0.509,1.738
		c-3.244,6.995-6.778,13.873-9.659,21.015"/>
	<path fill-rule="evenodd" clip-rule="evenodd" d="M547.687,376.534"/>
	<path fill-rule="evenodd" clip-rule="evenodd" d="M546.317,469.023c-1.22,9.03-2.254,18.086-3.513,27.11
		c-1.324,9.5-2.88,18.967-4.24,28.462c-0.269,1.871,0.173,3.86-0.195,5.698c-1.484,7.405-3.155,14.772-4.762,22.153
		c-1.499,6.892-2.805,13.834-4.585,20.653c-0.982,3.763-3.079,7.229-4.118,10.983c-1.759,6.354-2.841,8.832-4.654,15.166
		c-0.796,2.78-2.991,9.2-3.982,11.953c-1.54,4.277-2.505,8.76-3.927,13.086c-0.538,1.639-1.6,3.127-2.551,4.601
		c-0.553,0.854-1.226,4.214-1.54,5.11c-1.508,4.304-3.018,6.001-4.742,10.209c-1.844,4.498-4.246,8.77-6.426,13.128
		c-2.683,5.365-5.036,10.936-8.158,16.032c-5.906,9.641-12.647,18.784-18.279,28.573c-3.289,5.716-8.292,9.58-12.404,14.38
		c-0.218,0.254-0.538,0.421-0.812,0.628c0.086-0.351,0.104-0.737,0.269-1.047c2.519-4.765,5.111-9.49,7.576-14.282
		c3.102-6.031,6.362-12.002,9.065-18.212c2.179-5.004,3.404-10.416,5.468-15.478c2.099-5.145,4.745-10.063,7.069-15.117
		c0.979-2.129,1.785-4.34,2.606-6.538c1.438-3.849,3.091-7.643,4.178-11.59c2.012-7.31,3.587-14.738,5.525-22.068
		c1.094-4.132,2.608-8.151,3.832-12.251c2.048-6.864,4.287-13.688,5.936-20.648c1.438-6.08,2.09-12.343,3.265-18.491
		c0.394-2.053,1.614-3.952,1.972-6.006c1.68-9.649,3.203-19.326,4.758-28.996c0.855-5.324,1.816-10.637,2.454-15.987
		c1.282-10.743,2.427-21.504,3.522-32.269c0.425-4.175,0.659-8.375,0.815-12.57c0.422-11.402,1.052-22.808,1.045-34.211
		c-0.007-11.938-0.504-23.883-1.105-35.809c-0.237-4.732-1.301-9.427-2.08-14.124c-0.09-0.55-0.85-0.958-1.139-1.515
		c-0.245-0.473,0.364-2.661,0.29-3.207c-0.859-6.275-2.25-10.972-3.263-17.222c-0.546-3.365-1.46-6.683-2.398-9.968
		c-1.323-4.631-2.958-9.176-4.201-13.827c-0.973-3.638-1.017-7.602-2.432-11.024c-2.1-5.076-5.142-9.754-7.591-14.697
		c-1.106-2.234-1.562-4.788-2.644-7.037c-2.083-4.333-4.548-8.487-6.504-12.872c-0.41-0.92,0.394-3.399,1.147-3.653
		c4.13-1.397,8.485-2.118,12.636-3.465c5.096-1.653,8.705,2.11,11.447,4.426c5.796,4.894,12.27,10.601,14.829,17.353
		c4.474,11.801,6.226,24.636,9.076,37.048c0.947,4.122,1.898,8.25,2.599,12.417c0.452,2.695,0.323,5.485,0.713,8.195
		c0.166,1.153,0.994,26.222,1.521,27.322"/>
	<path fill-rule="evenodd" clip-rule="evenodd" d="M30.02,408.528"/>
	<path fill-rule="evenodd" clip-rule="evenodd" d="M31.554,391.862c0.762-7.686,1.529-15.379,1.976-23.087
		c0.605-10.438-0.433-21.053,1.468-31.333c0.699-3.778,1.309-6.041,1.836-8.153c2.375-9.508,1.788-9.679,3.5-15.194
		c0.75-2,0.081-1.467,1.917-4.833c1.669-2.999,0.75-2.255,8.779-13.536c4.701-4.215,9.998-7.847,15.383-11.181
		c2.454-1.52,5.685-2.343,8.586-2.404c2.246-0.047,4.529,1.574,6.787,2.476c0.225,0.09,0.36,0.398,0.584,0.501
		c1.558,0.717,3.128,1.406,4.695,2.104c-1.284,2.511-2.612,5-3.839,7.539c-1.748,3.618-3.369,7.297-5.145,10.899
		c-1.031,2.092-2.332,4.05-3.383,6.133c-1.991,3.942-4.328,7.783-5.731,11.933c-2.479,7.335-4.613,14.81-6.42,22.34
		c-1.361,5.671-3.189,10.621-4.379,17.61c-0.882,4.224-1.359,7.932-2.024,12.174c-1.052,6.708-1.454,13.516-2.164,20.278
		c-0.235,2.235-0.771,4.457-0.823,6.692c-0.154,6.595-0.035,13.196-0.212,19.789c-0.167,6.27-0.825,12.533-0.807,18.797
		c0.02,6.728,0.532,13.456,0.906,20.179c0.726,13.038-0.034,26.272,2.398,39.096c2.227,11.741,2.432,10.936,3.227,15.825
		c2.262,13.916,1.678,12.642,2.762,17.333c0.905,3.917,0.988,3.167,1.049,5.12c0.087,2.825,0.344,5.676,0.819,8.462
		c1.368,8.031,2.753,16.065,4.442,24.032c0.862,4.064,2.479,7.962,3.589,11.981c1.045,3.781,1.846,7.63,2.803,11.437
		c1.241,4.937,2.224,9.966,3.87,14.766c2.561,7.468,5.161,14.916,7.751,22.375c1.006,2.896,2.101,5.682,2.917,8.666
		c1.451,5.311,0.287,2.525,2.182,7.691c0.357,0.972,1.781,4.854,6.401,16.809c1.417,3.666,3.678,8.153,4.521,10.458
		c2.047,5.597,0.522,1.538,2.949,6.979c2.123,4.757,4.658,9.332,7.057,13.963c0.742,1.433,1.705,2.751,2.451,4.182
		c3.4,6.518,6.761,13.055,10.124,19.591c0.134,0.26,0.146,0.581,0.216,0.874c-0.437-0.255-0.994-0.413-1.291-0.781
		c-2.233-2.77-4.414-5.582-6.614-8.378c-5.354-6.802-11.058-13.363-15.946-20.484c-3.293-4.798-5.288-10.468-8.166-15.576
		c-1.163-2.063-3.548-4.964-4.718-7.076c-2.5-4.515-2.72-4.212-3.5-5.833c-1.434-2.982-1.941-3.307-3.255-6.344
		c-1.434-3.314-2.685-6.71-4.165-10.003c-3.14-6.984-6.738-13.786-9.479-20.919c-3.051-7.94-5.26-16.2-8.02-24.258
		c-2.242-6.545-4.929-12.941-7.075-19.517c-0.98-3.004-1.029-6.3-1.68-9.426c-2.27-10.893-4.795-21.735-6.888-32.661
		c-2.012-10.506-3.54-21.103-5.409-31.636c-1.224-6.898-1.896-9.83-3.245-16.706c-0.167-0.853-1.374-9.831-1.405-10.688
		c-0.398-11.055-0.504-17.912-1.1-28.955"/>
	<path fill-rule="evenodd" clip-rule="evenodd" fill="#FFFFFF" fill-opacity="0" d="M275.995,805.626c1.636-6.493,2.861-10.928,4.364-17.45
		c1.817-7.884,3.346-15.833,5.191-23.709c0.517-2.202,0.975-4.398,1.574-6.592c0.569-2.08,1.477-4.109,1.894-6.242
		c0.129-0.661,1.12-1.775,1.326-1.694c0.97,0.383,2.432,0.981,2.586,1.735c1.12,5.466,2.042,10.977,2.881,16.495
		c1.516,9.967,2.961,19.945,4.366,29.928"/>
	<path fill-rule="evenodd" clip-rule="evenodd" fill="#FFFFFF" fill-opacity="0" d="M547.687,376.534"/>
	<path fill-rule="evenodd" clip-rule="evenodd" d="M72.173,438.561c0-2.08-0.219-2.807,0.033-3.287
		c4.732-9.051-2.191-16.207-4.028-24.136c-2.007-8.667-5.1-17.085-7.04-25.763c-1.026-4.59,1.83-7.73,6.151-9.781
		c9.069-4.304,18.045-8.816,26.885-13.568c1.176-0.632,1.528-3.118,1.893-4.823c0.243-1.133-0.271-2.406-0.273-3.617
		c-0.023-14.946-0.015-29.893-0.015-44.839c0-4.93-0.319-9.885,0.065-14.785c0.87-11.077,2.22-22.116,3.113-33.192
		c0.548-6.807,0.429-13.666,0.943-20.476c0.587-7.777,1.538-15.526,2.343-23.285c0.457-4.398,0.856-8.805,1.431-13.188
		c0.866-6.601,1.771-13.199,2.83-19.771c1.227-7.606,2.601-15.189,3.987-22.769c0.651-3.562,1.279-7.148,2.275-10.621
		c1.826-6.367-0.047-12.233-1.476-18.37c-2.209-9.491-3.786-19.153-5.142-28.811c-0.842-5.993-1.07-12.114-1.046-18.175
		c0.025-6.146,0.06-12.421,1.28-18.397c1.082-5.302,3.849-10.251,5.766-15.396c1.071-2.873,1.649-5.957,2.943-8.714
		c1.902-4.054,3.955-8.102,6.489-11.775c2.294-3.325,6.203-5.74,7.827-9.278c2.743-5.976,9.084-6.722,13.093-10.652
		c0.194-0.19,0.583-0.181,0.88-0.265c-0.041,0.426,0.003,0.882-0.135,1.274c-1.762,4.997-3.875,9.897-5.249,14.998
		c-1.766,6.558-3.411,13.215-4.253,19.938c-1.007,8.037-1.3,16.182-1.564,24.291c-0.414,12.753,3.945,23.898,13.405,32.361
		c4.38,3.918,10.26,6.155,15.442,9.186c0.941,0.551,1.715,1.441,2.7,1.853c1.917,0.8,3.884,1.666,5.911,1.978
		c4.027,0.619,8.397,0.103,12.101,1.473c5.47,2.022,9.44,1.86,14.141-2.281c14.296-12.592,31.106-20.674,49.104-26.917
		c19.795-6.867,40.165-6.734,60.259-5.096c22.706,1.852,43.8,10.231,62.651,23.449c3.759,2.635,7.446,5.45,10.782,8.589
		c4.405,4.146,9.647,4.21,14.93,3.495c4.797-0.65,9.549-1.865,14.211-3.21c4.958-1.431,10.161-2.651,14.574-5.163
		c5.182-2.95,11.06-5.243,13.624-11.847c1.793-4.616,5.559-8.426,7.812-12.914c1.509-3.007,2.512-6.538,2.689-9.89
		c0.404-7.639,0.604-15.344,0.045-22.961c-0.453-6.179-1.914-12.32-3.348-18.378c-0.932-3.937-2.611-7.696-3.967-11.531
		c-1.186-3.353-2.434-6.684-3.535-10.063c-0.215-0.658,0.113-1.494,0.192-2.248c1.265,0.377,2.947,0.363,3.727,1.195
		c4.94,5.276,9.096,11.47,14.662,15.92c4.881,3.901,5.697,9.395,8.529,14.053c6.416,10.557,6.901,22.78,10.267,34.186
		c1.72,5.826,0.063,11.434,1.214,16.802c1.698,7.92-2.897,14.302-3.595,21.578c-1.017,10.589-3.872,21.059-4.22,31.636
		c-0.257,7.81,2.317,15.699,3.474,23.576c0.692,4.717,0.912,9.507,1.698,14.206c0.296,1.772,1.604,3.369,2.413,5.064
		c0.396,0.833,0.938,1.688,1.016,2.567c0.863,9.767,1.734,19.534,2.431,29.313c0.756,10.615,1.229,21.25,2.008,31.863
		c0.966,13.183,2.232,26.345,3.12,39.532c0.266,3.945-0.419,7.946-0.442,11.923c-0.011,1.871,0.744,3.744,0.757,5.618
		c0.078,10.575,0.149,21.153-0.013,31.727c-0.085,5.596-1.055,11.204-0.795,16.768c0.104,2.214,1.936,5.225,3.863,6.319
		c7.05,4.001,14.387,7.532,21.776,10.885c6.187,2.807,7.089,8.619,5.115,15.339c-3.545,12.075-8.278,23.8-12.469,35.688
		c-0.305,0.866-0.66,2.123-0.272,2.762c3.583,5.903,1.609,11.584-0.427,17.306c-4.343,12.205-8.678,24.414-12.991,36.629
		c-2.777,7.865-5.442,15.771-8.317,23.599c-0.57,1.553-1.561,3.517-2.892,4.128c-6.214,2.855-7.306,8.707-9.148,14.26
		c-3.096,9.322-6.354,18.59-9.566,27.873c-2.134,6.167-7.636,8.023-14.383,4.671c-19.626-9.752-39.201-19.606-58.825-29.362
		c-3.039-1.512-6.31-2.56-9.335-4.096c-4.966-2.521-7.372-8.24-5.641-13.213c7.317-21.009,14.715-41.99,21.951-63.026
		c0.462-1.343-0.191-3.07-0.326-4.618c-1.762,1.148-4.493,1.916-5.121,3.511c-2.991,7.6-5.447,15.411-8.016,23.173
		c-1.114,3.365-2.896,3.607-5.881,2.038c-6.854-3.604-6.91-3.486-4.495-10.804c0.956-2.898,1.956-5.787,2.777-8.725
		c0.188-0.676-0.277-1.535-0.442-2.311c-0.71,0.156-1.799,0.074-2.069,0.505c-2.362,3.764-5.714,7.371-6.61,11.495
		c-2.171,9.985-9.53,15.063-17.378,18.943c-10.606,5.247-21.653,10.146-33.056,13.066c-9.214,2.359-19.233,2.063-28.896,2.059
		c-14.365-0.005-28.149-3.457-40.741-10.375c-7.724-4.243-14.986-9.418-22.042-14.725c-2.018-1.518-2.783-4.884-3.777-7.532
		c-1.339-3.569-1.95-7.463-3.651-10.825c-0.876-1.731-3.435-2.611-5.233-3.877c-0.096,1.664-0.561,3.411-0.209,4.976
		c0.683,3.048,1.521,6.135,2.845,8.946c1.868,3.967,1.058,6.19-2.999,8.112c-6.23,2.952-6.934,2.78-8.993-3.791
		c-2.239-7.145-4.695-14.222-7.127-21.304c-0.449-1.309-0.938-2.881-1.934-3.663c-1.753-1.376-3.911-2.235-5.9-3.311
		c0.382,1.697,0.61,3.446,1.17,5.082c6.136,17.954,12.324,35.89,18.5,53.83c0.905,2.629,1.483,5.438,2.789,7.851
		c5.847,10.807,1.453,16.154-7.872,20.555c-12.779,6.031-25.431,12.333-38.119,18.559c-9.012,4.422-17.942,9.016-27.004,13.331
		c-6.595,3.141-11.415,0.474-13.679-6.544c-3.902-12.098-8.18-24.074-12.315-36.096c-0.136-0.396-0.354-0.957-0.669-1.072
		c-8.901-3.266-9.845-11.739-12.431-19.071c-6.361-18.038-12.628-36.108-18.882-54.184C72.306,440.25,72.193,438.662,72.173,438.561
		z M501.091,381.058c-0.544-0.581-1.12-1.599-1.99-2.056c-4.557-2.395-9.182-4.662-13.803-6.933
		c-0.603-0.295-1.686-0.713-1.932-0.465c-3.056,3.083-3.497-1.009-5.007-1.855c-1.721-0.965-3.053-2.65-4.798-3.543
		c-10.287-5.265-20.616-10.453-31.049-15.418c-0.677-0.322-3.054,1.171-3.435,2.246c-5.183,14.671-10.062,29.449-15.198,44.136
		c-6.884,19.684-14.005,39.286-20.88,58.972c-6.223,17.821-12.183,35.734-18.394,53.561c-3.662,10.511-3.777,10.463,6.089,15.418
		c16.223,8.147,32.421,16.345,48.717,24.343c0.871,0.427,3.415-0.465,3.718-1.283c4.759-12.885,9.374-25.824,13.828-38.817
		c6.205-18.098,12.124-36.294,18.396-54.366c6.389-18.406,13.101-36.7,19.581-55.074
		C497.075,393.855,498.936,387.691,501.091,381.058z M132.187,351.975c-4.755,2.115-8.548,3.57-12.117,5.45
		c-4,2.107-7.63,4.962-11.717,6.851c-10.726,4.958-21.659,9.469-32.369,14.458c-1.139,0.53-2.27,3.354-1.856,4.6
		c5.242,15.768,10.803,31.428,16.213,47.141c6.204,18.019,12.263,36.088,18.523,54.087c7.319,21.041,14.746,42.045,22.322,62.994
		c0.358,0.991,2.87,2.087,3.959,1.756c2.713-0.824,5.17-2.476,7.756-3.741c14.965-7.321,29.972-14.559,44.874-22.007
		c2.527-1.263,6.109-2.089,4.426-6.788c-5.865-16.371-11.471-32.836-17.123-49.284c-8.452-24.594-16.813-49.22-25.304-73.801
		c-4.202-12.165-8.511-24.295-13.024-36.347C136.035,355.432,133.979,354.022,132.187,351.975z M295.706,208.376
		c1.936,11.707,2.46,23.88,6.143,35.009c5.328,16.107,12.204,31.825,19.774,47.034c8.646,17.372,20.56,32.602,37.019,43.429
		c11.14,7.329,23.115,9.849,36.146,3.998c11.458-5.146,18.668-14.481,25.874-24.006c0.301-0.397,0.632-0.771,0.948-1.156
		c0.18,0.531,0.573,1.092,0.505,1.59c-0.49,3.59-0.719,7.27-1.702,10.729c-2.114,7.441-4.672,14.756-6.924,22.16
		c-0.208,0.683,0.211,1.964,0.778,2.412c6.172,4.865,9.549,4.042,12.004-3.306c1.374-4.115,4.289-5.914,7.9-5.237
		c4.265,0.8,8.223,3.115,12.446,4.302c1.778,0.5,5.074,0.507,5.671-0.478c4.134-6.828,8.885-13.628,11.166-21.128
		c1.987-6.536,1.17-13.976,1.262-21.021c0.056-4.332-0.293-8.699-0.854-13c-0.558-4.282-1.905-8.47-2.335-12.757
		c-0.289-2.875,0.826-5.883,0.602-8.776c-0.809-10.445-1.892-20.87-2.951-31.295c-0.134-1.31-0.745-2.571-1.135-3.854
		c-0.716,1.391-1.748,2.707-2.097,4.185c-2.282,9.66-3.311,19.791-6.908,28.916c-3.618,9.178-9.659,17.417-14.821,25.958
		c-1.572,2.601-3.467,5.146-5.703,7.177c-5.411,4.917-10.969,9.699-16.745,14.178c-3.626,2.812-7.686,5.095-11.689,7.373
		c-1.6,0.91-3.65,0.989-5.362,1.749c-8.191,3.635-16.668,3.848-24.095-0.809c-7.598-4.764-15.067-10.306-21.068-16.896
		c-7.48-8.217-14.449-17.281-19.771-27.001c-10.263-18.746-19.799-37.862-22.148-59.807c-1.063-9.925,0.132-19.142,3.509-28.121
		c6.346-16.871,21.712-23.337,36.393-30.53c4.064-1.992,7.69-2.96,12.463-1.781c3.899,0.963,8.455-0.246,12.635-0.982
		c13.059-2.3,25.803,0.258,38.558,2.319c5.134,0.83,8.499-2.639,12.617-4.249c2.647-1.035,5.104-2.586,7.576-4.023
		c1.342-0.78,3.132-1.563,3.637-2.79c0.517-1.258,0.283-3.675-0.618-4.51c-3.017-2.795-6.426-5.185-9.789-7.583
		c-2.267-1.615-4.803-4.343-7.058-4.191c-5.654,0.381-11.236,2.039-16.781,3.445c-0.479,0.122-0.603,2.175-0.628,3.337
		c-0.012,0.584,0.57,1.182,0.883,1.773c-0.684,0.266-1.39,0.804-2.047,0.75c-3.024-0.248-6.027-0.869-9.052-0.98
		c-15.679-0.574-31.094,0.999-46.154,5.667c-14.935,4.629-27.745,12.453-36.613,25.488
		C299.632,182.158,295.961,194.619,295.706,208.376z M264.034,194.576c0.224,0.916,0.679,1.827,0.724,2.754
		c0.36,7.403,1.036,14.821,0.813,22.21c-0.149,4.951-1.3,9.925-2.418,14.797c-0.896,3.901-1.281,4.371-2.045,7.779
		c-0.1,0.445-0.751,1.884-1.607,3.86c-0.465,1.075-0.823,1.391-1.299,2.318c-5.662,11.032-10.733,22.393-16.868,33.15
		c-8.128,14.253-17.56,27.679-31.72,36.763c-13.283,8.521-26.132,10.32-39.276-1.252c-2.414-2.125-4.806-4.275-7.236-6.381
		c-3.967-3.438-8.352-6.491-11.846-10.353c-5.655-6.249-11.467-12.462-14.731-20.529c-1.204-2.976-3.518-5.497-4.775-8.459
		c-1.472-3.469-2.488-7.156-3.446-10.814c-1.87-7.133-3.541-14.318-5.355-21.467c-0.227-0.892-0.193-2.773-0.616-3.616
		c-0.645,0.748-2.29,1.957-2.485,3.332c-1.703,12.026-2.322,24.181-3.439,36.275c-0.518,5.612-1.032,11.225-1.527,16.839
		c-1.113,12.629-3.047,24.226,3.058,37.361c2.767,5.306,3.758,7.829,3.473,6.258c-1.658-9.14,4.622,10.846,12.936,6.855
		c0.63-0.302,1.271-0.59,1.926-0.828c5.421-1.967,9.668,0.082,12.053,5.273c1.018,2.217,2.593,4.603,4.583,5.796
		c1.265,0.759,3.907-0.218,5.655-1.019c1.236-0.566,3.032-2.384,2.832-3.231c-2.568-10.88-5.452-21.686-8.247-32.513
		c-0.103-0.4-0.111-0.825-0.163-1.238c0.307,0.241,0.651,0.447,0.914,0.729c5.529,5.942,10.512,12.555,16.75,17.624
		c4.553,3.699,10.525,6.639,16.27,7.684c13.37,2.432,25.373-2.808,34.672-11.74c9.454-9.081,17.878-19.493,25.384-30.276
		c9.87-14.177,17.258-29.847,21.799-46.631c2.845-10.512,6.419-21.071,7.295-31.803c0.869-10.638-0.128-21.748-2.292-32.242
		c-3.346-16.227-14.187-27.766-28.432-35.351c-15.5-8.253-31.922-13.542-50.121-11.052c-6.463,0.884-13.204-0.234-19.814-0.504
		c-0.783-0.032-1.55-0.476-2.324-0.729c0.424-0.625,0.856-1.246,1.272-1.876c0.728-1.104,1.447-2.213,2.17-3.32
		c-1.328-0.488-2.654-0.981-3.984-1.463c-0.492-0.178-1.057-0.231-1.48-0.507c-4.919-3.216-9.558-1.26-14.032,0.954
		c-1.856,0.918-3.137,3.101-5.021,3.847c-7.623,3.019-7.941,3.024-6.155,10.243c0.383,1.547,2.888,2.813,4.666,3.71
		c2.27,1.146,4.81,1.874,7.027,2.779c5.283,2.012,8.127,3.306,12.37,3.059c6.922-0.403,13.804-1.479,20.12-2.204
		c5.319,0.507,10.08,0.521,14.64,1.485c10.145,2.142,20.27,4.473,30.254,7.261c10.254,2.865,18.732,8.478,24.575,17.766
		 M223.009,406.83c0.471,5.101,0.564,10.271,1.481,15.29c3.662,20.034,12.392,37.187,29.17,49.536
		c18.125,13.341,37.506,15.159,57.879,5.912c10.12-4.594,17.57-12.369,24.406-21.005c8.453-10.679,12.59-23.154,14.726-36.082
		c1.461-8.839,0.874-18.169,0.063-27.176c-0.498-5.522-2.734-11.03-4.96-16.212c-2.028-4.721-5.286-8.899-7.625-13.508
		c-1.096-2.156-0.591-5.39-2.048-7.049c-4.85-5.524-9.77-11.193-15.552-15.651c-13.78-10.625-29.585-14.119-46.504-9.771
		c-18.424,4.734-31.613,16.608-40.503,33.047C226.407,377.352,222.674,391.601,223.009,406.83z M426.903,231.918
		c-0.416-4.91-0.998-12.091-1.671-19.263c-0.077-0.821-0.575-1.649-1.03-2.38c-5.159-8.282-10.736-16.215-19.512-21.119
		c-1.327-0.742-3.087-0.711-4.646-1.038c0.23,1.272,0.28,2.613,0.724,3.807c2.177,5.869,5.524,11.538,6.438,17.583
		c1.19,7.869,0.576,16.027,0.513,24.059c-0.015,1.877-0.676,3.874-1.498,5.597c-2.476,5.193-4.979,10.393-7.858,15.367
		c-1.891,3.266-4.079,6.54-6.802,9.101c-3.53,3.321-7.707,5.962-11.648,8.837c-0.896,0.653-1.942,1.436-2.971,1.519
		c-6.234,0.502-12.479,0.994-18.728,1.105c-2.222,0.04-4.499-0.88-6.685-1.571c-2.125-0.672-4.25-1.45-6.211-2.492
		c-1.326-0.705,0,0-3.56-2.848c-5.847-1.382-9.66-4.584-11.22-10.521c-0.217-0.823-1.862-1.27-2.847-1.89
		c-0.134,1.127-0.763,2.516-0.326,3.342c4.063,7.696,7.601,15.811,12.674,22.802c7.275,10.025,15.374,19.524,23.856,28.559
		c2.469,2.63,7.71,4.525,11.224,3.952c10.049-1.637,19.45-5.73,27.661-11.957c3.025-2.295,5.628-5.186,8.216-7.995
		c0.848-0.92,0.861-2.557,1.57-3.665c1.73-2.703,4.126-5.079,5.387-7.965c2.773-6.346,6.134-12.749,7.197-19.454
		C426.667,253.827,426.336,243.974,426.903,231.918z M148.459,242.605c1.496,8.601,1.706,14.701,3.7,20.148
		c3.107,8.484,7.402,16.536,11.237,24.75c4.455,9.545,11.804,16.071,21.404,20.123c4.794,2.023,9.593,4.141,14.577,5.559
		c2.219,0.631,5.548,0.52,7.268-0.75c14.962-11.055,25.226-25.998,33.827-42.212c0.322-0.606,0.495-1.901,0.207-2.098
		c-0.627-0.427-1.922-0.762-2.367-0.408c-1.472,1.168-2.458,3.395-4.044,3.888c-4.961,1.544-10.129,3.511-15.184,3.422
		c-8.72-0.153-18.003,0.563-25.136-6.5c-0.915-0.907-3.024-0.686-3.815-1.628c-4.211-5.021-8.488-10.042-12.104-15.486
		c-1.906-2.87-2.609-6.572-3.678-9.954c-1.445-4.574-3.316-9.128-3.894-13.828c-0.534-4.345-0.077-8.964,0.789-13.293
		c1.306-6.536,3.407-12.91,5.015-19.391c0.259-1.043,0.125-2.691-0.535-3.365c-2.29-2.333-4.892-1.785-6.82,0.475
		c-3.791,4.442-7.491,8.983-10.919,13.707c-2.156,2.971-4.729,6.156-5.411,9.584C150.613,225.222,149.516,235.268,148.459,242.605z
		 M313.115,211.103c1.02,5.973,1.965,11.959,3.125,17.904c0.205,1.048,1.304,1.921,1.989,2.875c0.753-0.753,1.499-1.513,2.262-2.257
		c1.731-1.688,3.468-3.37,5.209-5.048c1.488-1.434,3.043-3.039,4.319-4.341c2.981-3.042,4.231-4.126,6.688-6.163
		c3.521-3.455,3.435-3.672,5.328-5.5c4.034-3.894,9.059-6.626,13.481-10.077c3.627-2.83,6.885-6.153,10.617-8.824
		c6.271-4.488,12.861-8.531,19.17-12.97c2.312-1.626,4.555-5.762,6.227-5.457c6.33,1.156,7.551-4.813,11.41-6.849
		c-0.342-0.624-0.615-1.735-1.037-1.794c-3.692-0.519-7.435-1.322-11.118-1.148c-10.669,0.505-21.415,0.774-31.948,2.354
		c-11.857,1.778-22.931,6.496-31.818,14.729C317.732,187.139,313.463,198.262,313.115,211.103z M401.226,220.273
		c-0.172-9.959-2.135-19.261-7.819-27.333c-1.681-2.387-5.748-5.408-7.681-4.804c-3.663,1.143-7.234,4.21-9.584,7.404
		c-1.843,2.505-1.485,6.292,1.726,8.77c0.679,0.523,1.214,1.603,1.294,2.474c0.461,5.053,1.16,10.13,1.03,15.181
		c-0.192,7.488-1.675,14.335-8.477,19.42c-7.263,5.43-20.241,3.439-24.472-4.405c-1.882-3.491-3.718-7.705-6.8-9.701
		c-5.826-3.772-6.752,4.045-10.34,5.976c-1.09,0.586-1.575,4.001-1.014,5.676c4.027,11.984,11.705,20.793,23.588,25.628
		c1.001,0.407,2.154,0.494,3.088,1.002c5.738,1.493,8.659,1.304,14.061,0.207c4.175-0.849,3.279-0.873,6.092-1.515
		c8.416-2.833,10.635-7.749,14.938-12.657c2.879-3.284,9.063-17.843,7.387-12.353c-0.044,0.145,0.177-1.168,0,0
		C400.084,232.887,400.236,226.597,401.226,220.273z M185.337,244.448c0.031-0.007,0.153,0.415,0.243,0.632
		c1.164,2.805,1.882,5.933,3.615,8.328c1.979,2.737,4.547,5.349,7.428,7.053c3.487,2.063,7.488,3.41,11.42,4.528
		c4.037,1.147,8.238,1.809,12.413,2.318c1.116,0.136,2.417-1.016,3.593-1.65c1.796-0.97,3.512-2.094,5.342-2.989
		c2.366-1.158,5.671-1.505,7.062-3.343c4.314-5.702,8.332-11.733,11.573-18.091c1.182-2.318,0.785-6.45-0.569-8.782
		c-1.468-2.529-5.23-3.607-7.368-5.899c-2.388-2.561-3.459-1.112-3.696,0.967c-0.712,6.274-5.025,10.146-8.927,14.309
		c-1.068,1.14-2.484,2.567-3.858,2.707c-6.776,0.688-13.561,0.69-18.212-5.552c-2.124-2.849-4.25-5.814-5.67-9.037
		c-1.324-3.005-2.474-6.456-2.333-9.649c0.201-4.538,1.417-9.088,2.67-13.5c0.63-2.218,2.072-4.325,3.554-6.153
		c2.068-2.554,1.322-6.035-1.712-7.429c-2.312-1.062-4.408-2.588-6.7-3.703c-1.008-0.49-2.796-1.061-3.32-0.588
		c-3.466,3.13-8.116,5.979-9.668,9.973c-2.683,6.907-3.395,14.581-4.866,21.609c1.211,6.583,1.862,12.573,3.606,18.226
		 M253.774,225.265c0.557,0.601,1.859,1.247,2.371,0.988c0.878-0.443,1.967-1.565,1.992-2.432c0.217-7.324,0.697-14.69,0.174-21.977
		c-1.107-15.426-10.985-24.797-23.761-31.339c-14.091-7.215-29.536-8.788-47.273-9.345c-2.648,0.287-7.395,0.778-12.133,1.344
		c-0.621,0.074-1.196,0.53-1.792,0.81c0.442,0.55,0.773,1.333,1.347,1.606c1.509,0.718,3.309,0.939,4.661,1.85
		c4.214,2.838,8.518,5.627,12.336,8.951c5.133,4.469,12.126,5.639,16.83,11.395c4.028,4.929,10.745,7.592,16.015,11.596
		c3.959,3.008,7.434,6.646,11.288,9.803 M439.251,223.374c-0.471,0.218-0.931-0.564-1.401-0.347c0.726,2.191,1.379,4.41,2.207,6.562
		c0.447,1.16,1.194,2.203,1.807,3.298c1.07-1.55,2.825-2.997,3.079-4.671c0.686-4.5,0.7-9.1,1.033-13.656
		c0.737-10.132,1.949-20.256,2.087-30.396c0.074-5.507-1.355-11.116-2.754-16.512c-0.429-1.654-3.037-3.893-4.588-3.847
		c-2.582,0.077-5.086,1.868-7.678,2.78c-3.97,1.397-7.997,2.633-11.968,4.028c-0.347,0.122-0.714,0.96-0.637,1.387
		c0.511,2.807,1.06,5.612,1.747,8.38c2.596,10.441,6.209,19.184,11.19,30.1C435.172,214.418,437.33,219.378,439.251,223.374z
		 M133.674,223.763c-0.034,0.008-0.069,0.015-0.103,0.023c0.259,2.06,0.437,4.134,0.793,6.178c0.637,3.652,1.34,7.294,2.142,10.913
		c0.089,0.399,1.008,0.615,1.542,0.916c0.148-0.548,0.362-1.088,0.433-1.646c0.616-4.894,0.791-9.889,1.915-14.662
		c1.233-5.235,3.702-10.176,4.984-15.404c3.091-12.601,5.886-25.277,8.524-37.98c0.226-1.086-1.369-2.913-2.557-3.823
		c-1.049-0.803-2.758-0.682-4.092-1.19c-1.875-0.715-3.644-1.706-5.513-2.441c-1.267-0.499-2.669-1.164-3.933-1.029
		c-1.556,0.166-4.136,0.816-4.357,1.724c-1.137,4.661-2.12,9.455-2.296,14.234c-0.339,9.19-0.404,18.416,0.015,27.601
		C131.425,212.73,132.802,218.235,133.674,223.763z M404.168,409.189c4.379-12.206,8.922-24.362,12.915-36.694
		c1.147-3.543,5.028-7.349,0.229-11.519c-3.647-3.168-6.067-3.35-9.332-0.062c-0.966,0.973-3.138,0.98-4.761,0.997
		c-1.335,0.014-2.675-0.614-4.746-1.146c-0.947,0.638-2.864,1.203-3.283,2.326c-3.497,9.366-6.97,18.759-9.853,28.323
		c-0.751,2.492-5.177,6.057,0.493,8.509c0.551,0.238,1.067-0.081,1.545,0.326c0.315-0.575,0.613-0.249,0.832-0.858
		c2.46-6.878,4.74-13.826,7.377-20.636c2.542-6.563,2.63-6.339,9.108-3.531c3.525,1.528,4.148,3.319,3.172,7.096
		c-2.257,8.727-8.579,16.562-6.099,26.362 M191.991,399.33c-0.401-1.502-0.557-2.269-0.809-3.002
		c-3.421-9.96-7.268-19.798-10.127-29.917c-1.643-5.812-5.14-5.403-9.537-5.118c-1.924,0.125-3.913-1.021-5.902-1.45
		c-0.682-0.147-1.503,0-2.178,0.242c-1.838,0.66-3.582,1.857-5.454,2.081c-2.83,0.337-3.795,1.407-2.833,4.101
		c4.331,12.112,8.608,24.245,13.113,36.292c0.291,0.778,2.397,1.32,3.541,1.153c0.585-0.085,1.511-2.172,1.244-3.031
		c-1.315-4.226-3.008-8.333-4.513-12.502c-3.956-10.954-3.97-11.02,5.44-14.814c0.842-0.339,3.038,0.533,3.336,1.323
		c3.111,8.218,5.885,16.564,8.986,24.787c0.37,0.98,2.122,1.948,3.251,1.969C190.413,401.458,191.304,399.97,191.991,399.33z
		 M157,181.083c-0.931,3.549-6.431,17.156-6.063,17.975c0.728-0.372,1.702-0.56,2.139-1.148c1.838-2.472,3.158-5.431,5.329-7.529
		c3.733-3.606,7.985-6.673,11.941-10.059c0.418-0.357,0.505-1.356,0.416-2.013c-0.722-5.284-5.948-4.926-9.197-6.944
		c-0.898-0.557-1.73,1.595-2.065,2.551C156.783,181.67,159.828,173.061,157,181.083z M383.985,411.771
		c-1.001-0.872-2.061-1.795-3.12-2.719c-0.876,1.011-2.141,1.88-2.565,3.054c-2.987,8.258-5.83,16.568-8.645,24.888
		c-0.508,1.5-0.676,3.116-1,4.679c1.911-0.896,3.95-1.601,5.676-2.771c0.791-0.537,1.039-1.959,1.403-3.023
		c1.015-2.965,1.924-5.964,2.941-8.927C380.338,422.108,382.053,417.284,383.985,411.771z M203.084,441.758
		c1.453-2.117,2.772-3.247,2.564-3.854c-2.872-8.393-5.883-16.742-9.095-25.01c-0.311-0.8-2.773-1.693-3.209-1.325
		c-0.95,0.802-1.987,2.622-1.677,3.619c2.192,7.065,4.605,14.068,7.211,20.992C199.522,437.889,201.135,439.233,203.084,441.758z
		 M414.442,173.172c-2.764,0.927-4.629,1.53-6.479,2.179c-2.413,0.847-3.047,1.818-0.695,3.791c3.969,3.33,7.69,6.955,11.578,10.385
		c0.377,0.333,1.439,0.455,1.738,0.184c0.481-0.438,0.95-1.376,0.804-1.943c-0.955-3.689-1.839-7.432-3.258-10.951
		C417.533,175.334,415.69,174.354,414.442,173.172z M391.474,433.207c0.947-0.75,1.667-1.068,1.996-1.619
		c2.443-4.099,4.927-8.185,7.081-12.435c0.35-0.69-0.604-2.74-1.434-3.124c-0.751-0.347-2.83,0.438-3.164,1.219
		c-1.943,4.551-3.578,9.236-5.209,13.914C390.582,431.628,391.147,432.348,391.474,433.207z M175.82,414.493
		c-1.358,1.063-2.83,1.935-2.731,2.182c1.013,2.549,2.101,5.116,3.599,7.395c0.391,0.596,2.283,0.204,3.485,0.266
		c-0.335-1.975-0.379-4.064-1.1-5.886C178.523,417.06,177.115,416.009,175.82,414.493z M324.205,245.139
		c-1.008-0.837-1.74-1.445-2.472-2.054c-0.264,0.354-0.828,0.877-0.74,1.034c0.468,0.833,1.099,1.574,1.673,2.346
		C323.062,246.124,323.457,245.783,324.205,245.139z M325.316,250.339c-0.564,0.846-1.098,1.373-1,1.546
		c0.478,0.846,1.121,1.598,1.707,2.383c0.312-0.331,0.948-0.79,0.878-0.971C326.552,252.407,326.015,251.59,325.316,250.339z"/>
	<path fill-rule="evenodd" clip-rule="evenodd" fill="#FFFFFF" fill-opacity="0" d="M478.359,369.749"/>
	<path fill-rule="evenodd" clip-rule="evenodd" fill="#FFFFFF" fill-opacity="0" d="M485.298,372.069c4.621,2.271,9.246,4.538,13.803,6.933
		c0.87,0.458,1.446,1.476,1.99,2.056c-2.155,6.633-4.016,12.798-6.155,18.864c-6.48,18.374-13.192,36.668-19.581,55.074
		c-6.272,18.072-12.191,36.269-18.396,54.366c-4.454,12.993-9.069,25.933-13.828,38.817c-0.303,0.818-2.847,1.71-3.718,1.283
		c-16.296-7.998-32.494-16.195-48.717-24.343c-9.866-4.955-9.751-4.907-6.089-15.418c6.211-17.826,12.171-35.739,18.394-53.561
		c6.875-19.687,30.896-88.438,36.078-103.108c0.381-1.075,2.758-2.568,3.435-2.246c10.433,4.965,20.762,10.153,31.049,15.418"/>
	<path fill-rule="evenodd" clip-rule="evenodd" fill="#FFFFFF" fill-opacity="0" d="M132.187,351.975c1.792,2.047,3.848,3.458,4.563,5.369
		c4.513,12.051,8.822,24.182,13.024,36.347c8.491,24.581,16.853,49.207,25.304,73.801c5.652,16.448,11.258,32.913,17.123,49.284
		c1.684,4.699-1.899,5.525-4.426,6.788c-14.901,7.448-29.909,14.686-44.874,22.007c-2.586,1.266-5.042,2.917-7.756,3.741
		c-1.09,0.331-3.601-0.765-3.959-1.756c-7.577-20.949-15.003-41.953-22.322-62.994c-6.261-17.999-12.319-36.068-18.523-54.087
		c-5.41-15.712-10.971-31.373-16.213-47.141c-0.414-1.246,0.717-4.07,1.856-4.6c10.71-4.99,21.643-9.501,32.369-14.458
		c4.087-1.889,7.717-4.744,11.717-6.851C123.639,355.545,127.432,354.089,132.187,351.975z"/>
	<path fill-rule="evenodd" clip-rule="evenodd" fill="#FFFFFF" fill-opacity="0" d="M347.536,160.364c-14.681,7.193-30.047,13.659-36.393,30.53
		c-3.377,8.979-4.571,18.195-3.509,28.121c2.35,21.945,11.886,41.062,22.148,59.807c5.322,9.721,12.291,18.785,19.771,27.001
		c6.001,6.59,13.471,12.133,21.068,16.896c7.427,4.657,15.903,4.444,24.095,0.809c1.712-0.76,3.763-0.839,5.362-1.749
		c4.004-2.277,8.063-4.561,11.689-7.373c5.776-4.479,11.334-9.261,16.745-14.178c2.236-2.031,4.131-4.576,5.703-7.177
		c5.162-8.54,11.203-16.78,14.821-25.958c3.598-9.125,4.626-19.256,6.908-28.916c0.349-1.478,1.381-2.794,2.097-4.185
		c0.39,1.283,1.001,2.544,1.135,3.854c1.06,10.425,2.143,20.85,2.951,31.295c0.225,2.894,0.581,6.95,0.87,9.826
		c0.43,4.287,0.306,7.426,0.863,11.708c0.561,4.3,0.909,8.668,0.854,13c-0.092,7.044,0.726,14.484-1.262,21.021
		c-2.281,7.5-7.032,14.3-11.166,21.128c-0.597,0.985-3.893,0.978-5.671,0.478c-4.224-1.187-8.182-3.501-12.446-4.302
		c-3.611-0.677-6.526,1.122-7.9,5.237c-2.455,7.347-5.832,8.17-12.004,3.306c-0.567-0.447-0.986-1.729-0.778-2.412
		c2.252-7.404,4.81-14.719,6.924-22.16c0.983-3.46,1.212-7.139,1.702-10.729c0.068-0.498-0.325-1.059-0.505-1.59
		c-0.316,0.385-0.647,0.759-0.948,1.156c-7.206,9.524-14.416,18.86-25.874,24.006c-13.031,5.852-25.007,3.331-36.146-3.998
		c-16.459-10.827-28.372-26.057-37.019-43.429c-7.57-15.209-14.446-30.927-19.774-47.034c-3.682-11.129-4.207-23.302-6.143-35.009
		c0.255-13.757,3.926-26.218,11.458-37.29c8.868-13.035,21.679-20.858,36.613-25.488c15.061-4.668,30.476-6.241,46.154-5.667
		c3.024,0.111,6.027,0.732,9.052,0.98c0.657,0.054,1.363-0.484,2.047-0.75c-0.313-0.591-0.895-1.189-0.883-1.773
		c0.025-1.162,0.148-3.215,0.628-3.337c5.545-1.407,11.127-3.064,16.781-3.445c2.255-0.152,4.791,2.576,7.058,4.191
		c3.363,2.397,6.772,4.788,9.789,7.583c0.901,0.835,1.135,3.252,0.618,4.51c-0.505,1.227-2.295,2.01-3.637,2.79
		c-2.473,1.438-4.929,2.989-7.576,4.023c-4.118,1.61-7.483,5.079-12.617,4.249c-12.755-2.061-25.499-4.619-38.558-2.319
		c3.937-0.693-14.605,0.611-12.635,0.982"/>
	<path fill-rule="evenodd" clip-rule="evenodd" fill="#FFFFFF" fill-opacity="0" d="M119.188,328.877c-6.266-12.016-4.171-24.732-3.058-37.361
		c0.495-5.615,1.009-11.227,1.527-16.839c1.653-17.896,2.791-29.901,3.439-36.275c0.082-0.805,0.612-4.651,1.86-2.251
		c0.422,0.843,1.014,1.643,1.24,2.535c1.814,7.149,3.485,14.334,5.355,21.467c0.958,3.658,1.974,7.345,3.446,10.814
		c1.257,2.962,3.571,5.483,4.775,8.459c3.264,8.067,9.076,14.28,14.731,20.529c3.495,3.862,7.879,6.915,11.846,10.353
		c2.43,2.106,4.822,4.256,7.236,6.381c13.144,11.572,25.993,9.772,39.276,1.252c14.161-9.084,23.592-22.51,31.72-36.763
		c6.134-10.757,11.206-22.118,16.868-33.15c0.476-0.927,1.842-1.396,2.791-2.082c0.568-0.41,1.588-0.793,1.622-1.248
		c0.267-3.537,0.09-7.121,0.538-10.628c0.633-4.959,2.27-9.847,2.418-14.797c0.223-7.389-0.453-14.807-0.813-22.21
		c-0.045-0.927-0.598-1.819-0.724-2.754c-0.195-1.447-1.268-3.532-1.368-4.991c1.412,1.022-1.586-2.214-0.167-1.201
		c0.757,0.54-0.769-1.323,0-0.799c-0.274-0.947-1.569-3.35-2.167-4c-3.189-3.467,2.809,1.307-0.825-1.645
		c-7.854-6.378-14.32-14.901-24.575-17.766c-9.984-2.789-20.109-5.119-30.254-7.261c-4.561-0.963-9.321-0.978-14.64-1.485
		c-6.316,0.725-13.198,1.801-20.12,2.204c-4.243,0.247-7.184,0.52-13.42-2.632c-2.338-0.97-3.707-2.06-5.977-3.206
		c-1.778-0.897-4.283-2.163-4.666-3.71c-1.786-7.219-1.468-7.225,6.155-10.243c1.884-0.746,3.165-2.928,5.021-3.847
		c4.475-2.214,9.113-4.17,14.032-0.954c0.423,0.276,0.988,0.329,1.48,0.507c1.33,0.482,2.656,0.975,3.984,1.463
		c-0.723,1.107-1.442,2.216-2.17,3.32c-0.417,0.63-0.848,1.251-1.272,1.876c0.774,0.253,1.541,0.697,2.324,0.729
		c6.611,0.27,13.352,1.388,19.814,0.504c18.198-2.49,34.62,2.799,50.121,11.052c14.245,7.585,25.085,19.124,28.432,35.351
		c2.164,10.494,3.161,21.604,2.292,32.242c-0.876,10.731-4.45,21.291-7.295,31.803c-4.541,16.784-11.93,32.454-21.799,46.631
		c-7.506,10.783-15.93,21.195-25.384,30.276c-9.299,8.933-21.303,14.172-34.672,11.74c-5.745-1.045-11.717-3.985-16.27-7.684
		c-6.238-5.069-11.221-11.681-16.75-17.624c-0.262-0.282-0.607-0.488-0.914-0.729c0.052,0.414,0.06,0.838,0.163,1.238
		c2.795,10.827,5.679,21.633,8.247,32.513c0.2,0.847-1.596,2.665-2.832,3.231c-1.748,0.801-4.39,1.778-5.655,1.019
		c-1.991-1.193-3.565-3.579-4.583-5.796c-2.384-5.191-6.631-7.24-12.053-5.273c-0.656,0.238-1.296,0.526-1.926,0.828
		c-8.314,3.991-11.479-0.572-15.643-8.876"/>
	<path fill-rule="evenodd" clip-rule="evenodd" fill="#FFFFFF" fill-opacity="0" d="M345.773,377.093c2.226,5.182,4.462,10.689,4.96,16.212
		c0.812,9.007,1.398,18.337-0.063,27.176c-2.136,12.927-6.272,25.403-14.726,36.082c-6.836,8.636-14.286,16.411-24.406,21.005
		c-20.373,9.247-39.753,7.429-57.879-5.912c-16.778-12.35-25.508-29.502-29.17-49.536c-0.917-5.019-1.01-10.188-1.481-15.29
		c-0.335-15.229,3.398-29.478,10.532-42.669c8.89-16.439,22.079-28.313,40.503-33.047c16.919-4.348,32.724-0.854,46.504,9.771
		c5.782,4.458,10.702,10.127,15.552,15.651 M283.247,362.689c0-5.769,0.1-11.541-0.112-17.302c-0.031-0.824-1.644-2.347-2.405-2.275
		c-14.513,1.357-24.882,9.82-33.433,20.655c-6.183,7.834-9.766,16.996-11.971,26.865c-3.056,13.68-1.848,26.899,2.462,39.984
		c0.251,0.762,2.991,1.638,3.734,1.16c8.05-5.184,16.003-10.53,23.79-16.1c1.237-0.884,2.188-3.116,2.142-4.692
		c-0.334-11.563,1.809-21.693,13.548-27.294c1.12-0.535,2.079-2.579,2.137-3.963C283.378,374.057,283.239,368.37,283.247,362.689z
		 M287.088,470.313c1.308,0,2.63,0.116,3.92-0.032c1.289-0.148,2.533-0.669,3.822-0.842c16.024-2.14,27.037-11.474,35.263-24.692
		c0.416-0.669-0.12-2.684-0.835-3.188c-8.036-5.654-16.11-11.267-24.404-16.526c-1.289-0.818-4.354-0.544-5.544,0.466
		c-7.002,5.945-16.371,6.183-23.754,0.511c-1.09-0.837-3.7-0.915-4.9-0.185c-6.458,3.937-12.709,8.214-19,12.421
		c-7.99,5.344-8.044,5.413-2.679,12.67C258.434,463.708,271.576,469.411,287.088,470.313z M341.927,408.026
		c-1.226-7.611-1.953-14.158-3.382-20.549c-2.433-10.887-7.418-20.719-15.115-28.732c-6.978-7.265-15.234-12.806-25.492-15.015
		c-3.905-0.841-4.611,0.202-4.578,3.635c0.097,9.875,0.236,19.757-0.06,29.624c-0.131,4.404,0.854,7.499,5.058,9.51
		c1.602,0.766,2.702,2.647,3.938,4.101c4.648,5.471,4.963,12.014,4.774,18.762c-0.043,1.536,0.546,3.75,1.646,4.552
		c8.14,5.946,16.442,11.675,24.838,17.254c0.686,0.456,3.4-0.479,3.566-1.158C338.958,422.484,340.477,414.881,341.927,408.026z
		 M287.06,419.872c5.669,0.042,11.747-6.472,11.718-12.557c-0.037-7.711-5.527-14.511-11.626-14.398
		c-5.057,0.094-10.576,6.033-10.628,11.438C276.434,413.653,280.624,419.825,287.06,419.872z"/>
	<path fill-rule="evenodd" clip-rule="evenodd" fill="#FFFFFF" fill-opacity="0" d="M426.903,231.918c-0.567,12.056-0.236,21.909-1.752,31.47
		c-1.063,6.706-4.424,13.108-7.197,19.454c-1.261,2.886-3.656,5.262-5.387,7.965c-0.709,1.108-0.723,2.745-1.57,3.665
		c-2.588,2.81-5.19,5.7-8.216,7.995c-8.211,6.227-17.612,10.32-27.661,11.957c-3.514,0.573-8.755-1.322-11.224-3.952
		c-8.482-9.034-16.581-18.533-23.856-28.559c-5.073-6.991-8.61-15.106-12.674-22.802c-0.437-0.826,0.192-2.215,0.327-3.342
		c0.983,0.621,2.629,1.067,2.846,1.89c4.962,6.031,7.545,7.615,13.021,12.18c2.869,2.063,0.433,0.484,1.759,1.189
		c1.961,1.042,4.086,1.82,6.211,2.492c2.186,0.691,4.463,1.611,6.685,1.571c6.248-0.111,12.493-0.603,18.728-1.105
		c1.028-0.083,2.074-0.866,2.971-1.519c3.941-2.875,8.118-5.516,11.648-8.837c2.723-2.561,4.911-5.834,6.802-9.101
		c2.879-4.974,5.383-10.173,7.858-15.367c0.822-1.723,1.483-3.719,1.498-5.597c0.063-8.032,0.678-16.19-0.513-24.059
		c-0.914-6.045-4.262-11.714-6.438-17.583c-0.443-1.194-0.493-2.535-0.724-3.807c1.56,0.326,3.319,0.296,4.646,1.038
		c8.775,4.904,14.353,12.837,19.512,21.119c0.455,0.73,0.953,1.559,1.03,2.38C425.905,219.827,426.487,227.008,426.903,231.918z"/>
	<path fill-rule="evenodd" clip-rule="evenodd" fill="#FFFFFF" fill-opacity="0" d="M148.459,242.605c1.057-7.338,2.154-17.383,4.116-27.257
		c0.682-3.428,3.254-6.613,5.411-9.584c3.428-4.724,7.128-9.265,10.919-13.707c1.928-2.26,4.531-2.808,6.82-0.475
		c0.661,0.673,0.794,2.321,0.535,3.365c-1.608,6.481-3.709,12.855-5.015,19.391c-0.866,4.33-1.323,8.948-0.789,13.293
		c0.578,4.699,2.448,9.254,3.894,13.828c1.069,3.382,1.772,7.084,3.678,9.954c3.616,5.444,7.894,10.464,12.104,15.486
		c0.791,0.943,2.9,0.722,3.815,1.628c7.133,7.062,16.416,6.347,25.136,6.5c5.055,0.089,10.223-1.878,15.184-3.422
		c1.586-0.493,2.572-2.72,4.044-3.888c0.445-0.354,1.74-0.019,2.367,0.408c0.288,0.197,0.115,1.492-0.207,2.098
		c-8.601,16.214-18.864,31.158-33.827,42.212c-1.72,1.271-5.049,1.382-7.268,0.75c-4.983-1.418-9.783-3.535-14.577-5.559
		c-9.6-4.052-16.949-10.578-21.404-20.123c-3.835-8.214-8.13-16.266-11.237-24.75C150.165,257.307,149.955,251.207,148.459,242.605z
		"/>
	<path fill-rule="evenodd" clip-rule="evenodd" fill="#FFFFFF" fill-opacity="0" d="M385.305,176.702c-6.309,4.439-12.898,8.482-19.17,12.97
		c-3.732,2.67-6.99,5.994-10.617,8.824c-4.423,3.451-9.108,6.567-13.481,10.077c-1.997,1.603-3.19,4.801-5.328,5.5"/>
	<path fill-rule="evenodd" clip-rule="evenodd" fill="#FFFFFF" fill-opacity="0" d="M331.251,219.274c-1.479,1.065-4.345,3.167-5.551,5.303
		c-1.741,1.678-3.478,3.36-5.209,5.048c-0.763,0.744-1.509,1.504-2.262,2.257c-0.686-0.954-1.784-1.827-1.989-2.875
		c-1.16-5.945-2.105-11.931-3.125-17.904c0.348-12.841,4.617-23.964,13.904-32.565c8.888-8.232,19.961-12.95,31.818-14.729
		c10.533-1.58,21.279-1.85,31.948-2.354c3.684-0.174,7.426,0.629,11.118,1.148c0.422,0.059,0.695,1.17,1.037,1.794"/>
	<path fill-rule="evenodd" clip-rule="evenodd" fill="#FFFFFF" fill-opacity="0" d="M180.958,238.731c-1.745-5.652-2.396-11.643-3.606-18.226
		c1.471-7.028,2.183-14.702,4.866-21.609c1.552-3.994,6.202-6.843,9.668-9.973c0.524-0.473,2.313,0.098,3.32,0.588
		c2.292,1.115,4.388,2.642,6.7,3.703c3.034,1.394,3.78,4.875,1.712,7.429c-1.481,1.828-2.924,3.935-3.554,6.153
		c-1.253,4.411-2.469,8.961-2.67,13.5c-0.142,3.194,1.008,6.645,2.333,9.649c1.42,3.223,3.546,6.188,5.67,9.037
		c4.651,6.242,11.436,6.24,18.212,5.552c1.374-0.139,2.79-1.566,3.858-2.707c3.901-4.162,8.214-8.035,8.927-14.309
		c0.237-2.079,1.308-3.528,3.696-0.967c2.138,2.292,5.9,3.37,7.368,5.899c1.354,2.332,1.751,6.464,0.569,8.782
		c-3.242,6.358-7.259,12.389-11.573,18.091c-1.391,1.838-4.696,2.185-7.062,3.343c-1.83,0.895-3.546,2.02-5.342,2.989
		c-1.176,0.635-2.478,1.787-3.593,1.65c-4.175-0.51-8.376-1.171-12.413-2.318c-3.932-1.118-7.933-2.466-11.42-4.528
		c-2.881-1.704-5.45-4.316-7.428-7.053"/>
	<path fill-rule="evenodd" clip-rule="evenodd" fill="none" stroke="#FFFFFF" stroke-opacity="0" stroke-miterlimit="10" d="M187.276,161.161
		c17.738,0.557,33.182,2.129,47.273,9.345c12.776,6.542,22.654,15.913,23.761,31.339c0.523,7.287,0.043,14.653-0.174,21.977
		c-0.025,0.866-1.114,1.989-1.992,2.432c-0.512,0.258-1.814-0.388-2.371-0.988c-4.674-5.038-10.018-9.627-14.774-14.584
		c-2.011-1.457-2.115-1.298-3.172-2.164c-3.854-3.158-7.329-6.795-11.288-9.803c-5.27-4.004-11.987-6.667-16.015-11.596
		c-4.704-5.756-11.697-6.926-16.83-11.395c-3.818-3.324-8.122-6.113-12.336-8.951c-1.353-0.911-3.152-1.132-4.661-1.85
		c-0.574-0.273-0.905-1.056-1.347-1.606c0.596-0.279,1.171-0.735,1.792-0.81C179.881,161.939,184.628,161.448,187.276,161.161z"/>
	<path fill-rule="evenodd" clip-rule="evenodd" fill="#FFFFFF" fill-opacity="0" d="M433.376,210.482c-5.042-9.941-8.595-19.659-11.19-30.1
		c-0.688-2.768-1.236-5.573-1.747-8.38c-0.077-0.427,0.29-1.266,0.637-1.387c3.971-1.395,7.998-2.631,11.968-4.028
		c2.592-0.912,5.096-2.704,7.678-2.78c1.551-0.046,4.159,2.193,4.588,3.847c1.398,5.396,2.828,11.005,2.754,16.512
		c-0.138,10.139-1.35,20.263-2.087,30.396c-0.333,4.556-0.348,9.155-1.033,13.656c-0.254,1.675-2.009,3.121-3.079,4.671
		c-0.612-1.095-1.359-2.138-1.807-3.298c-0.828-2.151-1.481-4.371-2.207-6.562"/>
	<path fill-rule="evenodd" clip-rule="evenodd" fill="#FFFFFF" fill-opacity="0" d="M133.674,223.763c-0.872-5.527-2.249-11.032-2.502-16.588
		c-0.419-9.185-0.354-18.41-0.015-27.601c0.176-4.779,1.159-9.573,2.296-14.234c0.222-0.908,2.801-1.558,4.357-1.724
		c1.264-0.134,2.667,0.53,3.933,1.029c1.869,0.736,3.638,1.727,5.513,2.441c1.333,0.508,3.043,0.387,4.092,1.19
		c1.188,0.91,2.782,2.736,2.557,3.823c-2.638,12.703-5.433,25.379-8.524,37.98c-1.282,5.228-3.751,10.169-4.984,15.404
		c-1.124,4.772-1.299,9.768-1.915,14.662c-0.07,0.558-0.285,1.098-0.433,1.646c-0.534-0.301-1.453-0.517-1.542-0.916
		c-0.802-3.618-1.505-7.261-2.142-10.913c-0.357-2.043-0.535-4.118-0.793-6.178C133.605,223.778,133.64,223.771,133.674,223.763z"/>
	<path fill-rule="evenodd" clip-rule="evenodd" fill="#FFFFFF" fill-opacity="0" d="M398.473,360.765c2.071,0.532,3.411,1.161,4.746,1.146
		c1.623-0.017,3.795-0.024,4.761-0.997c3.265-3.288,5.685-3.106,9.332,0.062c4.8,4.17,0.919,7.975-0.229,11.519
		c-3.993,12.333-8.536,24.488-12.915,36.694c-0.255,0.71-0.699,0.177-1.168,0.811c-0.347-0.804-1.022-0.479-1.234-1.316
		c-2.48-9.8,3.842-17.635,6.099-26.362c0.977-3.777,0.354-5.568-3.172-7.096c-6.479-2.808-6.566-3.031-9.108,3.531
		c-2.637,6.81-4.917,13.757-7.377,20.636c-0.219,0.609-0.303,0.58-0.618,1.154c-0.236-0.201-0.915-0.258-1.759-0.623
		c-5.67-2.452-1.244-6.018-0.493-8.509c2.883-9.564,6.355-18.958,9.853-28.323C395.608,361.968,397.525,361.403,398.473,360.765z"/>
	<path fill-rule="evenodd" clip-rule="evenodd" fill="#FFFFFF" fill-opacity="0" d="M191.991,399.33c-0.687,0.64-1.578,2.128-2.441,2.112
		c-1.129-0.021-2.881-0.989-3.251-1.969c-3.101-8.223-5.875-16.568-8.986-24.787c-0.298-0.79-2.494-1.662-3.336-1.323
		c-9.41,3.794-9.396,3.86-5.44,14.814c1.505,4.168,3.198,8.276,4.513,12.502c0.267,0.859-0.659,2.946-1.244,3.031
		c-1.143,0.167-3.25-0.375-3.541-1.153c-4.505-12.047-8.783-24.179-13.113-36.292c-0.963-2.693,0.002-3.763,2.833-4.101
		c1.872-0.224,3.616-1.421,5.454-2.081c0.675-0.243,1.496-0.39,2.178-0.242c1.989,0.429,3.978,1.575,5.902,1.45
		c4.397-0.286,7.894-0.694,9.537,5.118c2.859,10.118,6.706,19.956,10.127,29.917C191.434,397.062,191.59,397.828,191.991,399.33z"/>
	<path fill-rule="evenodd" clip-rule="evenodd" fill="#FFFFFF" fill-opacity="0" d="M383.985,411.771c-1.933,5.514-3.647,10.338-5.31,15.181
		c-1.018,2.963-1.927,5.962-2.941,8.927c-0.364,1.064-0.612,2.486-1.403,3.023c-1.726,1.17-3.765,1.875-5.676,2.771
		c0.324-1.563,0.492-3.179,1-4.679c2.814-8.319,5.657-16.63,8.645-24.888c0.425-1.174,1.689-2.043,2.565-3.054
		C381.925,409.976,382.984,410.899,383.985,411.771z"/>
	<path fill-rule="evenodd" clip-rule="evenodd" fill="#FFFFFF" fill-opacity="0" d="M203.084,441.758c-1.949-2.524-3.563-3.869-4.206-5.579
		c-2.606-6.924-5.019-13.927-7.211-20.992c-0.31-0.997,0.727-2.816,1.677-3.619c0.437-0.368,2.899,0.524,3.209,1.325
		c3.212,8.268,6.223,16.618,9.095,25.01C205.856,438.511,204.538,439.641,203.084,441.758z"/>
	<path fill-rule="evenodd" clip-rule="evenodd" fill="#FFFFFF" fill-opacity="0" d="M391.474,433.207c-0.326-0.859-0.892-1.579-0.729-2.045
		c1.631-4.678,3.266-9.363,5.209-13.914c0.334-0.781,2.413-1.566,3.164-1.219c0.83,0.384,1.783,2.434,1.434,3.124
		c-2.154,4.25-4.638,8.336-7.081,12.435C393.141,432.139,392.421,432.457,391.474,433.207z"/>
	<path fill-rule="evenodd" clip-rule="evenodd" fill="#FFFFFF" fill-opacity="0" d="M175.82,414.493c1.295,1.516,2.703,2.566,3.253,3.956
		c0.721,1.822,0.765,3.911,1.1,5.886c-1.202-0.062-3.094,0.33-3.485-0.266c-1.499-2.278-2.586-4.845-3.599-7.395
		C172.99,416.428,174.461,415.556,175.82,414.493z"/>
	<path fill-rule="evenodd" clip-rule="evenodd" fill="#FFFFFF" fill-opacity="0" d="M324.205,245.139c-0.748,0.644-1.144,0.985-1.539,1.326
		c-0.574-0.772-1.205-1.513-1.673-2.346c-0.088-0.156,0.477-0.68,0.74-1.034C322.465,243.693,323.197,244.301,324.205,245.139z"/>
	<path fill-rule="evenodd" clip-rule="evenodd" fill="#FFFFFF" fill-opacity="0" d="M325.316,250.339c0.698,1.251,1.235,2.068,1.585,2.958
		c0.07,0.181-0.566,0.64-0.878,0.971c-0.586-0.786-1.229-1.537-1.707-2.383C324.219,251.712,324.752,251.185,325.316,250.339z"/>
	<path fill-rule="evenodd" clip-rule="evenodd" d="M283.243,362.689c-0.004,5.681,0.135,11.367-0.104,17.039
		c-0.059,1.384-1.017,3.428-2.137,3.963c-11.739,5.601-13.882,15.732-13.548,27.294c0.045,1.576-0.905,3.808-2.142,4.692
		c-7.787,5.57-15.739,10.917-23.79,16.1c-0.744,0.478-3.483-0.398-3.734-1.16c-4.311-13.085-5.518-26.305-2.462-39.984
		c2.205-9.87,5.788-19.031,11.971-26.865c8.551-10.835,18.919-19.298,33.433-20.655c0.762-0.071,2.375,1.452,2.405,2.275
		C283.347,351.148,283.247,356.921,283.243,362.689z"/>
	<path fill-rule="evenodd" clip-rule="evenodd" d="M287.088,470.313c-15.512-0.901-28.654-6.604-38.112-19.397
		c-5.366-7.257-5.312-7.326,2.679-12.67c6.291-4.207,12.542-8.484,19-12.421c1.2-0.73,3.811-0.652,4.9,0.185
		c7.383,5.672,16.752,5.435,23.754-0.511c1.19-1.01,4.255-1.284,5.544-0.466c8.294,5.26,16.368,10.872,24.404,16.526
		c0.715,0.504,1.251,2.519,0.835,3.188c-8.226,13.219-19.238,22.553-35.263,24.692c-1.289,0.173-2.533,0.693-3.822,0.842
		C289.718,470.429,288.396,470.313,287.088,470.313z"/>
	<path fill-rule="evenodd" clip-rule="evenodd" d="M341.927,408.026c-1.45,6.854-2.969,14.458-4.806,21.984
		c-0.166,0.68-2.881,1.614-3.566,1.158c-8.396-5.579-16.698-11.308-24.838-17.254c-1.101-0.803-1.689-3.016-1.646-4.552
		c0.188-6.748-0.126-13.291-4.774-18.762c-1.235-1.454-2.336-3.335-3.938-4.101c-4.205-2.011-5.189-5.106-5.058-9.51
		c0.296-9.867,0.157-19.749,0.06-29.624c-0.034-3.434,0.672-4.476,4.578-3.635c10.257,2.208,18.514,7.75,25.492,15.015
		c7.697,8.013,12.683,17.845,15.115,28.732C339.974,393.868,340.701,400.415,341.927,408.026z"/>
	<path fill-rule="evenodd" clip-rule="evenodd" d="M287.06,419.872c-6.436-0.047-10.626-6.219-10.536-15.517
		c0.052-5.406,5.571-11.345,10.628-11.438c6.099-0.113,11.589,6.687,11.626,14.398C298.807,413.4,292.729,419.913,287.06,419.872z"
		/>
</g>
<g>
	<g>
		<path fill="#FFFFFF" fill-opacity="0" d="M198.5,174.75c3.224,0,3.224-5,0-5S195.276,174.75,198.5,174.75L198.5,174.75z"/>
	</g>
</g>
<g>
	<g>
		<path fill="#FFFFFF" fill-opacity="0" d="M204.488,180.659c5.743,2.55,9.947,7.925,13.603,12.853c1.898,2.558,6.241,0.069,4.317-2.523
			c-4.144-5.585-8.871-11.75-15.397-14.647C204.093,175.045,201.546,179.353,204.488,180.659L204.488,180.659z"/>
	</g>
</g>
<path fill="none" d="M242.395,212.782"/>
<path fill="none" d="M235.188,207.563"/>
<line fill="none" x1="238.5" y1="210.074" x2="239.5" y2="211.287"/>
<line fill="none" x1="322.595" y1="244.775" x2="322.26" y2="245.977"/>
<path fill="none" d="M222.988,161.055"/>
<g>
	<g>
		<path fill="#FFFFFF" fill-opacity="0" d="M162.415,133.839c-2.006-0.287-3.895-0.121-5.829,0.5c-1.296,0.416-2.119,1.72-1.746,3.075
			c0.35,1.271,1.778,2.163,3.075,1.746c1.038-0.333,2.166-0.644,3.171-0.5c1.348,0.193,2.68-0.309,3.075-1.746
			C164.487,135.728,163.766,134.033,162.415,133.839L162.415,133.839z"/>
	</g>
</g>
<g>
	<g>
		<path d="M324.908,244.238c0.326,0.729,0.002-0.461,0.113,0.428c-0.027-0.22-0.021-0.445-0.021-0.667
			c-0.003-1.363-1.135-2.5-2.5-2.5c-1.36,0-2.503,1.137-2.5,2.5c0.002,0.996,0.186,1.853,0.592,2.762
			c0.556,1.245,2.342,1.529,3.42,0.897C325.281,246.915,325.464,245.482,324.908,244.238L324.908,244.238z"/>
	</g>
</g>
<g>
	<g>
		<path d="M324,253.5c0.511,0.019-0.633-0.132-0.104-0.013c0.178,0.04,0.805,0.328,0.132,0.018c0.142,0.065,0.275,0.146,0.408,0.226
			c0.394,0.236-0.427-0.409,0.046,0.037c0.989,0.936,2.552,0.984,3.535,0c0.943-0.942,0.99-2.6,0-3.535
			c-1.088-1.028-2.517-1.676-4.018-1.732c-1.362-0.051-2.5,1.176-2.5,2.5C321.5,252.402,322.639,253.449,324,253.5L324,253.5z"/>
	</g>
</g>
<path fill-rule="evenodd" clip-rule="evenodd" fill="none" d="M262.25,192.486c0.293-0.609-0.099-1.507-0.329-2.088
	c-0.292-0.74-0.285-1.316-0.421-1.912"/>
</svg>
